<?xml version="1.0" encoding="UTF-8"?>

<!DOCTYPE svg PUBLIC '-//W3C//DTD SVG 1.0//EN' 'http://www.w3.org/TR/2001/REC-SVG-20010904/DTD/svg10.dtd'>
<svg style="stroke-dasharray:none; shape-rendering:auto; font-family:&apos;Dialog&apos;; text-rendering:auto; fill-opacity:1; color-interpolation:auto; color-rendering:auto; font-size:12; fill:black; stroke:black; image-rendering:auto; stroke-miterlimit:10; stroke-linecap:square; stroke-linejoin:miter; font-style:normal; stroke-width:1; stroke-dashoffset:0; font-weight:normal; stroke-opacity:1;" xmlns="http://www.w3.org/2000/svg" width="195" contentScriptType="text/ecmascript" preserveAspectRatio="xMidYMid meet" xmlns:xlink="http://www.w3.org/1999/xlink" zoomAndPan="magnify" version="1.0" contentStyleType="text/css" height="120">
  <!--Generated by the Batik Graphics2D SVG Generator-->
  <defs id="genericDefs" />
  <g>
    <g transform="matrix(1,0,0,1,75,41.25)">
      <line x1="0" x2="-10" y1="0" style="fill:none;" y2="0" />
    </g>
    <g transform="matrix(1,0,0,1,75,41.25)">
      <line x1="-10" x2="-10" y1="0" style="fill:none;" y2="10" />
      <line x1="-10" x2="0" y1="10" style="fill:none;" y2="10" />
      <line x1="0" x2="10" y1="10" style="fill:none;" y2="10" />
      <line x1="10" x2="10" y1="10" style="fill:none;" y2="0" />
      <line x1="10" x2="10" y1="0" style="fill:none;" y2="-20" />
      <line x1="10" x2="-10" y1="-20" style="fill:none;" y2="-20" />
      <line x1="-10" x2="-40" y1="-20" style="fill:none;" y2="-20" />
      <line x1="-40" x2="-40" y1="-20" style="fill:none;" y2="10" />
      <line x1="-40" x2="-40" y1="10" style="fill:none;" y2="60" />
      <line x1="-40" x2="10" y1="60" style="fill:none;" y2="60" />
      <line x1="10" x2="90" y1="60" style="fill:none;" y2="60" />
      <line x1="90" x2="90" y1="60" style="fill:none;" y2="-20" />
      <line x1="0" x2="0" y1="0" style="fill:none;" y2="10" />
      <line x1="0" x2="10" y1="0" style="fill:none;" y2="0" />
      <line x1="-10" x2="-10" y1="0" style="fill:none;" y2="-20" />
      <line x1="-10" x2="-40" y1="10" style="fill:none;" y2="10" />
      <line x1="10" x2="10" y1="10" style="fill:none;" y2="60" />
      <line x1="10" x2="90" y1="-20" style="fill:none;" y2="-20" />
    </g>
  </g>
</svg>
